# Blender 4.2.1 LTS
# www.blender.org
mtllib heart.mtl
o Red
v 0.135705 0.183196 -0.577891
v 0.106643 -0.627195 -0.138499
v 0.135705 0.183196 0.577890
v 0.106643 -0.627195 0.138499
v -0.135705 0.183196 -0.577890
v -0.106643 -0.627195 -0.138499
v -0.135705 0.183196 0.577890
v -0.106643 -0.627195 0.138499
v -0.145036 -0.684874 0.000000
v 0.154120 0.109554 0.000000
v -0.154120 0.109554 -0.000000
v 0.145036 -0.684874 0.000000
v -0.144967 -0.666488 0.058083
v 0.149957 0.254977 0.240223
v -0.149957 0.254977 0.240223
v 0.144967 -0.666488 0.058083
v -0.149957 0.254977 -0.240223
v 0.144967 -0.666488 -0.058083
v -0.144967 -0.666488 -0.058083
v 0.149957 0.254977 -0.240223
v 0.178023 -0.225647 -0.384900
v -0.178023 -0.225647 0.384900
v 0.178023 -0.225647 0.384900
v -0.178023 -0.225647 -0.384900
v 0.286169 -0.295328 0.000000
v -0.286169 -0.295328 0.000000
v -0.284529 -0.196375 0.169708
v 0.284529 -0.196375 0.169708
v 0.284529 -0.196375 -0.169708
v -0.284529 -0.196375 -0.169708
v -0.135445 -0.659007 0.094172
v -0.000000 -0.658912 -0.126986
v 0.149678 -0.475920 -0.232001
v -0.179569 0.024482 0.529516
v 0.149678 -0.475920 0.232001
v -0.149678 -0.475920 -0.232001
v -0.000000 0.204369 0.624157
v 0.161353 0.250038 0.448564
v -0.000000 -0.658912 0.126986
v -0.161353 0.250038 -0.448564
v -0.000000 0.204369 -0.624157
v 0.135445 -0.659007 -0.094172
v -0.145689 -0.677182 -0.028111
v 0.149103 0.170166 -0.094116
v -0.149103 0.170166 0.094116
v 0.145689 -0.677182 0.028111
v 0.246580 -0.520851 -0.000000
v -0.000000 -0.742539 0.000000
v -0.246580 -0.520851 0.000000
v 0.000000 0.171053 -0.000000
v -0.145689 -0.677182 0.028111
v 0.149103 0.170166 0.094116
v -0.161353 0.250038 0.448564
v 0.135445 -0.659007 0.094172
v -0.246212 -0.464814 0.109634
v 0.246212 -0.464814 0.109634
v -0.000000 -0.737943 0.039283
v 0.000000 0.321742 0.248745
v -0.149103 0.170166 -0.094116
v 0.145689 -0.677182 -0.028111
v -0.135445 -0.659007 -0.094172
v 0.161353 0.250038 -0.448564
v -0.000000 0.321742 -0.248745
v -0.000000 -0.737943 -0.039283
v 0.246212 -0.464814 -0.109634
v -0.246212 -0.464814 -0.109634
v 0.179569 0.024482 -0.529516
v -0.149678 -0.475920 0.232001
v 0.179569 0.024482 0.529516
v -0.179569 0.024482 -0.529516
v 0.254529 -0.064055 -0.000000
v -0.254529 -0.064055 -0.000000
v -0.250578 0.065029 0.214365
v 0.250578 0.065029 0.214365
v 0.250578 0.065029 -0.214365
v -0.250578 0.065029 -0.214365
v -0.286892 -0.253976 -0.076118
v 0.264116 -0.196519 -0.286455
v 0.286892 -0.253976 0.076118
v -0.264116 -0.196519 0.286455
v -0.286892 -0.253976 0.076118
v 0.286892 -0.253976 -0.076118
v 0.000000 -0.238381 -0.420673
v 0.264116 -0.196519 0.286455
v -0.264116 -0.196519 -0.286455
v 0.000000 -0.238381 0.420673
v 0.000000 0.313611 0.474850
v -0.000000 0.011692 0.584444
v -0.249638 0.064361 -0.386222
v -0.000000 -0.727872 0.065671
v 0.249638 0.064361 0.386222
v 0.000000 0.011692 -0.584444
v 0.251209 -0.010188 -0.089468
v -0.000000 -0.740616 -0.019409
v -0.251209 -0.010188 0.089468
v 0.000000 0.233834 -0.095315
v -0.249638 0.064361 0.386222
v 0.251209 -0.010188 0.089468
v -0.000000 -0.740616 0.019409
v 0.000000 0.233834 0.095315
v -0.000000 0.313611 -0.474850
v -0.000000 -0.727872 -0.065671
v 0.249638 0.064361 -0.386222
v -0.251209 -0.010188 -0.089468
v -0.248222 -0.497413 -0.051515
v 0.225234 -0.463591 -0.176369
v 0.248222 -0.497413 0.051515
v -0.225234 -0.463591 0.176369
v -0.248222 -0.497413 0.051515
v 0.248222 -0.497413 -0.051515
v -0.000000 -0.486073 -0.249249
v 0.225234 -0.463591 0.176369
v -0.225234 -0.463591 -0.176369
v -0.000000 -0.486073 0.249249
vn 0.3878 0.9216 0.0176
vn -0.3878 0.9216 0.0176
vn -0.3495 0.7772 0.5233
vn 0.3495 0.7772 0.5233
vn 0.2456 -0.5093 0.8248
vn 0.2948 -0.1976 0.9349
vn -0.2948 -0.1976 0.9349
vn -0.2456 -0.5093 0.8248
vn -0.9947 0.0718 -0.0738
vn -0.8916 0.4526 0.0178
vn -0.8922 0.2146 -0.3973
vn -0.8474 -0.2115 -0.4870
vn -0.3850 -0.8716 0.3035
vn 0.3850 -0.8716 0.3035
vn 0.1701 -0.6895 0.7041
vn -0.1701 -0.6895 0.7041
vn 0.9947 0.0718 0.0738
vn 0.8916 0.4526 -0.0178
vn 0.8922 0.2146 0.3973
vn 0.8474 -0.2115 0.4870
vn -0.2456 -0.5093 -0.8248
vn -0.2948 -0.1976 -0.9349
vn 0.2948 -0.1976 -0.9349
vn 0.2456 -0.5093 -0.8248
vn 0.9867 0.1445 0.0743
vn 0.8312 0.4784 0.2832
vn 0.8361 0.4818 0.2625
vn 0.9877 0.1418 0.0661
vn -0.3892 -0.8883 -0.2439
vn 0.3892 -0.8883 -0.2439
vn 0.3737 -0.9101 -0.1790
vn -0.3737 -0.9101 -0.1790
vn -0.9867 0.1445 -0.0743
vn -0.8312 0.4784 -0.2832
vn -0.8361 0.4818 -0.2625
vn -0.9877 0.1418 -0.0661
vn 0.3399 0.8143 0.4705
vn -0.3399 0.8143 0.4705
vn -0.3265 0.7959 0.5098
vn 0.3265 0.7959 0.5098
vn -0.8474 -0.2115 0.4870
vn -0.8922 0.2146 0.3973
vn -0.8916 0.4526 -0.0178
vn -0.9947 0.0718 0.0738
vn 0.9877 0.1418 -0.0661
vn 0.8361 0.4818 -0.2625
vn 0.8312 0.4784 -0.2832
vn 0.9867 0.1445 -0.0743
vn -0.3737 -0.9101 0.1790
vn 0.3737 -0.9101 0.1790
vn 0.3892 -0.8883 0.2439
vn -0.3892 -0.8883 0.2439
vn 0.3265 0.7959 -0.5098
vn -0.3265 0.7959 -0.5098
vn -0.3399 0.8143 -0.4705
vn 0.3399 0.8143 -0.4705
vn 0.3495 0.7772 -0.5233
vn -0.3495 0.7772 -0.5233
vn -0.3878 0.9216 -0.0176
vn 0.3878 0.9216 -0.0176
vn -0.1701 -0.6895 -0.7041
vn 0.1701 -0.6895 -0.7041
vn 0.3850 -0.8716 -0.3035
vn -0.3850 -0.8716 -0.3035
vn 0.8474 -0.2115 -0.4870
vn 0.8922 0.2146 -0.3973
vn 0.8916 0.4526 0.0178
vn 0.9947 0.0718 -0.0738
vn -0.9877 0.1418 0.0661
vn -0.8361 0.4818 0.2625
vn -0.8312 0.4784 0.2832
vn -0.9867 0.1445 0.0743
vn -0.8412 -0.5113 -0.1757
vn -0.9836 -0.1676 -0.0669
vn -0.9774 -0.1682 -0.1282
vn -0.8267 -0.4944 -0.2686
vn 0.5296 -0.5361 -0.6574
vn 0.6842 -0.3992 -0.6104
vn 0.9542 -0.2063 -0.2165
vn 0.8225 -0.4919 -0.2856
vn 0.8412 -0.5113 0.1757
vn 0.9836 -0.1676 0.0669
vn 0.9774 -0.1682 0.1282
vn 0.8267 -0.4944 0.2686
vn -0.5296 -0.5361 0.6574
vn -0.6842 -0.3992 0.6104
vn -0.9542 -0.2063 0.2165
vn -0.8225 -0.4919 0.2856
vn -0.8267 -0.4944 0.2686
vn -0.9774 -0.1682 0.1282
vn -0.9836 -0.1676 0.0669
vn -0.8412 -0.5113 0.1757
vn 0.8267 -0.4944 -0.2686
vn 0.9774 -0.1682 -0.1282
vn 0.9836 -0.1676 -0.0669
vn 0.8412 -0.5113 -0.1757
vn -0.1100 -0.5609 -0.8206
vn -0.1709 -0.5445 -0.8211
vn 0.1709 -0.5445 -0.8211
vn 0.1100 -0.5609 -0.8206
vn 0.8225 -0.4919 0.2856
vn 0.9542 -0.2063 0.2165
vn 0.6842 -0.3992 0.6104
vn 0.5296 -0.5361 0.6574
vn -0.8225 -0.4919 -0.2856
vn -0.9542 -0.2063 -0.2165
vn -0.6842 -0.3992 -0.6104
vn -0.5296 -0.5361 -0.6574
vn 0.1100 -0.5609 0.8206
vn 0.1709 -0.5445 0.8211
vn -0.1709 -0.5445 0.8211
vn -0.1100 -0.5609 0.8206
vt 0.645833 0.687500
vt 0.752604 0.687500
vt 0.752170 0.718750
vt 0.644097 0.719401
vt 0.875000 0.687500
vt 0.875000 0.718750
vt 0.875000 0.750000
vt 0.750000 0.750000
vt 0.625000 0.750000
vt 0.500000 0.781250
vt 0.562934 0.778646
vt 0.562500 0.878255
vt 0.500000 0.878906
vt 0.625000 0.875000
vt 0.625000 1.000000
vt 0.562500 1.000000
vt 0.500000 1.000000
vt 0.500000 0.187500
vt 0.562500 0.187500
vt 0.562500 0.222005
vt 0.500000 0.222656
vt 0.625000 0.187500
vt 0.625000 0.218750
vt 0.625000 0.250000
vt 0.562500 0.278646
vt 0.500000 0.281250
vt 0.125000 0.687500
vt 0.247396 0.687500
vt 0.247830 0.718750
vt 0.125000 0.718750
vt 0.354167 0.687500
vt 0.355903 0.719401
vt 0.375000 0.750000
vt 0.250000 0.750000
vt 0.125000 0.750000
vt 0.500000 0.687500
vt 0.565104 0.687500
vt 0.564670 0.722005
vt 0.500000 0.722656
vt 0.562500 0.375000
vt 0.500000 0.375000
vt 0.625000 0.375000
vt 0.625000 0.500000
vt 0.562934 0.471354
vt 0.500000 0.468750
vt 0.500000 0.562500
vt 0.565104 0.562500
vt 0.565104 0.593750
vt 0.500000 0.593750
vt 0.645833 0.562500
vt 0.645833 0.593750
vt 0.645833 0.625000
vt 0.565104 0.625000
vt 0.500000 0.625000
vt 0.125000 0.562500
vt 0.247396 0.562500
vt 0.247396 0.593750
vt 0.125000 0.593750
vt 0.354167 0.562500
vt 0.354167 0.593750
vt 0.354167 0.625000
vt 0.247396 0.625000
vt 0.125000 0.625000
vt 0.500000 0.062500
vt 0.562500 0.062500
vt 0.562500 0.093750
vt 0.500000 0.093750
vt 0.625000 0.062500
vt 0.625000 0.093750
vt 0.625000 0.125000
vt 0.562500 0.125000
vt 0.500000 0.125000
vt 0.752604 0.562500
vt 0.752604 0.593750
vt 0.875000 0.562500
vt 0.875000 0.593750
vt 0.875000 0.625000
vt 0.752604 0.625000
vt 0.500000 0.000000
vt 0.562500 0.000000
vt 0.562500 0.031250
vt 0.500000 0.031250
vt 0.625000 0.000000
vt 0.625000 0.031250
vt 0.565104 0.656250
vt 0.500000 0.656250
vt 0.645833 0.656250
vt 0.247396 0.656250
vt 0.125000 0.656250
vt 0.354167 0.656250
vt 0.752604 0.656250
vt 0.875000 0.656250
vt 0.750000 0.500000
vt 0.752170 0.531250
vt 0.644097 0.530599
vt 0.875000 0.500000
vt 0.875000 0.531250
vt 0.125000 0.500000
vt 0.250000 0.500000
vt 0.247830 0.531250
vt 0.125000 0.531250
vt 0.375000 0.500000
vt 0.355903 0.530599
vt 0.564670 0.527995
vt 0.500000 0.527344
vt 0.562500 0.156250
vt 0.500000 0.156250
vt 0.625000 0.156250
vt 0.375000 0.125000
vt 0.437500 0.125000
vt 0.437500 0.156250
vt 0.375000 0.156250
vt 0.437500 0.187500
vt 0.375000 0.187500
vt 0.437066 0.471354
vt 0.435330 0.527995
vt 0.434896 0.562500
vt 0.434896 0.625000
vt 0.434896 0.656250
vt 0.434896 0.687500
vt 0.375000 0.000000
vt 0.437500 0.000000
vt 0.437500 0.031250
vt 0.375000 0.031250
vt 0.437500 0.062500
vt 0.375000 0.062500
vt 0.437500 0.093750
vt 0.375000 0.093750
vt 0.434896 0.593750
vt 0.375000 0.250000
vt 0.437500 0.278646
vt 0.437500 0.375000
vt 0.375000 0.375000
vt 0.435330 0.722005
vt 0.437066 0.778646
vt 0.437500 0.222005
vt 0.375000 0.218750
vt 0.437500 0.878255
vt 0.375000 0.875000
vt 0.437500 1.000000
vt 0.375000 1.000000
s 0
usemtl Red
f 14/1/1 58/2/1 87/3/1 38/4/1
f 58/2/2 15/5/2 53/6/2 87/3/2
f 87/3/3 53/6/3 7/7/3 37/8/3
f 38/4/4 87/3/4 37/8/4 3/9/4
f 23/10/5 69/11/5 88/12/5 86/13/5
f 69/11/6 3/9/6 37/14/6 88/12/6
f 88/12/7 37/14/7 7/15/7 34/16/7
f 86/13/8 88/12/8 34/16/8 22/17/8
f 30/18/9 76/19/9 89/20/9 85/21/9
f 76/19/10 17/22/10 40/23/10 89/20/10
f 89/20/11 40/23/11 5/24/11 70/25/11
f 85/21/12 89/20/12 70/25/12 24/26/12
f 13/27/13 57/28/13 90/29/13 31/30/13
f 57/28/14 16/31/14 54/32/14 90/29/14
f 90/29/15 54/32/15 4/33/15 39/34/15
f 31/30/16 90/29/16 39/34/16 8/35/16
f 28/36/17 74/37/17 91/38/17 84/39/17
f 74/37/18 14/1/18 38/4/18 91/38/18
f 91/38/19 38/4/19 3/9/19 69/11/19
f 84/39/20 91/38/20 69/11/20 23/10/20
f 24/26/21 70/25/21 92/40/21 83/41/21
f 70/25/22 5/24/22 41/42/22 92/40/22
f 92/40/23 41/42/23 1/43/23 67/44/23
f 83/41/24 92/40/24 67/44/24 21/45/24
f 29/46/25 75/47/25 93/48/25 82/49/25
f 75/47/26 20/50/26 44/51/26 93/48/26
f 93/48/27 44/51/27 10/52/27 71/53/27
f 82/49/28 93/48/28 71/53/28 25/54/28
f 19/55/29 64/56/29 94/57/29 43/58/29
f 64/56/30 18/59/30 60/60/30 94/57/30
f 94/57/31 60/60/31 12/61/31 48/62/31
f 43/58/32 94/57/32 48/62/32 9/63/32
f 27/64/33 73/65/33 95/66/33 81/67/33
f 73/65/34 15/68/34 45/69/34 95/66/34
f 95/66/35 45/69/35 11/70/35 72/71/35
f 81/67/36 95/66/36 72/71/36 26/72/36
f 20/50/37 63/73/37 96/74/37 44/51/37
f 63/73/38 17/75/38 59/76/38 96/74/38
f 96/74/39 59/76/39 11/77/39 50/78/39
f 44/51/40 96/74/40 50/78/40 10/52/40
f 22/79/41 34/80/41 97/81/41 80/82/41
f 34/80/42 7/83/42 53/84/42 97/81/42
f 97/81/43 53/84/43 15/68/43 73/65/43
f 80/82/44 97/81/44 73/65/44 27/64/44
f 25/54/45 71/53/45 98/85/45 79/86/45
f 71/53/46 10/52/46 52/87/46 98/85/46
f 98/85/47 52/87/47 14/1/47 74/37/47
f 79/86/48 98/85/48 74/37/48 28/36/48
f 9/63/49 48/62/49 99/88/49 51/89/49
f 48/62/50 12/61/50 46/90/50 99/88/50
f 99/88/51 46/90/51 16/31/51 57/28/51
f 51/89/52 99/88/52 57/28/52 13/27/52
f 10/52/53 50/78/53 100/91/53 52/87/53
f 50/78/54 11/77/54 45/92/54 100/91/54
f 100/91/55 45/92/55 15/5/55 58/2/55
f 52/87/56 100/91/56 58/2/56 14/1/56
f 1/43/57 41/93/57 101/94/57 62/95/57
f 41/93/58 5/96/58 40/97/58 101/94/58
f 101/94/59 40/97/59 17/75/59 63/73/59
f 62/95/60 101/94/60 63/73/60 20/50/60
f 6/98/61 32/99/61 102/100/61 61/101/61
f 32/99/62 2/102/62 42/103/62 102/100/62
f 102/100/63 42/103/63 18/59/63 64/56/63
f 61/101/64 102/100/64 64/56/64 19/55/64
f 21/45/65 67/44/65 103/104/65 78/105/65
f 67/44/66 1/43/66 62/95/66 103/104/66
f 103/104/67 62/95/67 20/50/67 75/47/67
f 78/105/68 103/104/68 75/47/68 29/46/68
f 26/72/69 72/71/69 104/106/69 77/107/69
f 72/71/70 11/70/70 59/108/70 104/106/70
f 104/106/71 59/108/71 17/22/71 76/19/71
f 77/107/72 104/106/72 76/19/72 30/18/72
f 9/109/73 49/110/73 105/111/73 43/112/73
f 49/110/74 26/72/74 77/107/74 105/111/74
f 105/111/75 77/107/75 30/18/75 66/113/75
f 43/112/76 105/111/76 66/113/76 19/114/76
f 2/102/77 33/115/77 106/116/77 42/103/77
f 33/115/78 21/45/78 78/105/78 106/116/78
f 106/116/79 78/105/79 29/46/79 65/117/79
f 42/103/80 106/116/80 65/117/80 18/59/80
f 12/61/81 47/118/81 107/119/81 46/90/81
f 47/118/82 25/54/82 79/86/82 107/119/82
f 107/119/83 79/86/83 28/36/83 56/120/83
f 46/90/84 107/119/84 56/120/84 16/31/84
f 8/121/85 68/122/85 108/123/85 31/124/85
f 68/122/86 22/79/86 80/82/86 108/123/86
f 108/123/87 80/82/87 27/64/87 55/125/87
f 31/124/88 108/123/88 55/125/88 13/126/88
f 13/126/89 55/125/89 109/127/89 51/128/89
f 55/125/90 27/64/90 81/67/90 109/127/90
f 109/127/91 81/67/91 26/72/91 49/110/91
f 51/128/92 109/127/92 49/110/92 9/109/92
f 18/59/93 65/117/93 110/129/93 60/60/93
f 65/117/94 29/46/94 82/49/94 110/129/94
f 110/129/95 82/49/95 25/54/95 47/118/95
f 60/60/96 110/129/96 47/118/96 12/61/96
f 6/130/97 36/131/97 111/132/97 32/133/97
f 36/131/98 24/26/98 83/41/98 111/132/98
f 111/132/99 83/41/99 21/45/99 33/115/99
f 32/133/100 111/132/100 33/115/100 2/102/100
f 16/31/101 56/120/101 112/134/101 54/32/101
f 56/120/102 28/36/102 84/39/102 112/134/102
f 112/134/103 84/39/103 23/10/103 35/135/103
f 54/32/104 112/134/104 35/135/104 4/33/104
f 19/114/105 66/113/105 113/136/105 61/137/105
f 66/113/106 30/18/106 85/21/106 113/136/106
f 113/136/107 85/21/107 24/26/107 36/131/107
f 61/137/108 113/136/108 36/131/108 6/130/108
f 4/33/109 35/135/109 114/138/109 39/139/109
f 35/135/110 23/10/110 86/13/110 114/138/110
f 114/138/111 86/13/111 22/17/111 68/140/111
f 39/139/112 114/138/112 68/140/112 8/141/112
