# Blender 4.2.1 LTS
# www.blender.org
mtllib impostor.mtl
o Color2
v 0.000000 -1.000000 -2.000000
v 1.732051 -1.000000 1.000000
v -1.732051 -1.000000 1.000000
v 0.000000 1.000000 0.000000
vn 0.7746 0.4472 -0.4472
vn -0.0000 -1.0000 -0.0000
vn -0.0000 0.4472 0.8944
vn -0.7746 0.4472 -0.4472
vt 0.250000 0.490000
vt 0.250000 0.250000
vt 0.457846 0.130000
vt 0.750000 0.490000
vt 0.957846 0.130000
vt 0.542154 0.130000
vt 0.042154 0.130000
s 0
usemtl White
f 1/1/1 4/2/1 2/3/1
f 1/4/2 2/5/2 3/6/2
f 2/3/3 4/2/3 3/7/3
f 3/7/4 4/2/4 1/1/4
o Color1
v -1.414214 0.000000 1.414214
v -0.517638 0.000000 -1.931852
v 1.931852 0.000000 0.517638
v 0.000000 -2.000000 0.000000
vn -0.8640 -0.4472 -0.2315
vn -0.0000 1.0000 -0.0000
vn 0.6325 -0.4472 -0.6325
vn 0.2315 -0.4472 0.8640
vt 0.250000 0.490000
vt 0.250000 0.250000
vt 0.457846 0.130000
vt 0.750000 0.490000
vt 0.957846 0.130000
vt 0.542154 0.130000
vt 0.042154 0.130000
s 0
usemtl Red
f 5/8/5 6/10/5 8/9/5
f 5/11/6 7/13/6 6/12/6
f 6/10/7 7/14/7 8/9/7
f 7/14/8 5/8/8 8/9/8
