# Blender 4.2.1 LTS
# www.blender.org
mtllib object1.mtl
o Grey
v 0.500000 -0.171167 -0.500000
v 0.500000 -5.750324 1.827453
v 0.500000 -0.171167 0.500000
v 0.500000 -5.750324 2.827453
v -0.500000 -0.171167 -0.500000
v -0.500000 -5.750324 1.827453
v -0.500000 -0.171167 0.500000
v -0.500000 -5.750324 2.827453
v 0.500000 5.154072 1.827453
v 0.500000 5.154072 2.827453
v -0.500000 5.154072 1.827453
v -0.500000 5.154072 2.827453
v -0.500000 2.491452 0.663727
v 0.500000 2.491452 0.663727
v 0.500000 2.491452 1.663727
v -0.500000 2.491452 1.663727
v 0.500000 1.160142 0.081863
v -0.500000 1.160142 1.081863
v -0.500000 1.160142 0.081863
v 0.500000 1.160142 1.081863
v 0.500000 -2.960746 0.663727
v -0.500000 -2.960746 1.663727
v 0.500000 -2.960746 1.663727
v -0.500000 -2.960746 0.663727
v -0.500000 -1.565956 1.081863
v 0.500000 -1.565956 0.081863
v 0.500000 -1.565956 1.081863
v -0.500000 -1.565956 0.081863
vn -0.0000 0.4005 -0.9163
vn -0.0000 0.3850 0.9229
vn -1.0000 -0.0000 -0.0000
vn 1.0000 -0.0000 -0.0000
vn -0.0000 -0.3850 -0.9229
vn -0.0000 -0.4005 0.9163
vt 0.625000 0.500000
vt 0.625000 0.250000
vt 0.625000 0.250000
vt 0.625000 0.500000
vt 0.562500 0.750000
vt 0.625000 0.750000
vt 0.625000 1.000000
vt 0.562500 1.000000
vt 0.562500 0.000000
vt 0.625000 0.000000
vt 0.562500 0.250000
vt 0.562500 0.500000
vt 0.625000 1.000000
vt 0.625000 0.750000
vt 0.625000 0.750000
vt 0.375000 0.250000
vt 0.500000 0.250000
vt 0.500000 0.500000
vt 0.375000 0.500000
vt 0.500000 0.750000
vt 0.375000 0.750000
vt 0.375000 0.000000
vt 0.500000 0.000000
vt 0.500000 1.000000
vt 0.375000 1.000000
s 0
usemtl Grey
f 14/1/1 13/2/1 11/3/1 9/4/1
f 27/5/2 3/6/2 7/7/2 25/8/2
f 25/9/3 7/10/3 5/3/3 28/11/3
f 26/12/4 1/4/4 3/6/4 27/5/4
f 28/11/5 5/3/5 1/4/5 26/12/5
f 16/13/6 15/14/6 10/6/6 12/7/6
f 13/2/3 16/10/3 12/10/3 11/3/3
f 15/14/4 14/1/4 9/4/4 10/6/4
f 1/4/1 5/3/1 19/3/1 17/4/1
f 7/7/6 3/6/6 20/15/6 18/13/6
f 5/3/3 7/10/3 18/10/3 19/3/3
f 3/6/4 1/4/4 17/4/4 20/15/4
f 6/16/5 24/17/5 21/18/5 2/19/5
f 2/19/4 21/18/4 23/20/4 4/21/4
f 8/22/3 22/23/3 24/17/3 6/16/3
f 4/21/2 23/20/2 22/24/2 8/25/2
o Red
v -0.500000 2.491452 0.663727
v 0.500000 2.491452 0.663727
v 0.500000 2.491452 1.663727
v -0.500000 2.491452 1.663727
v 0.500000 1.160142 0.081863
v -0.500000 1.160142 1.081863
v -0.500000 1.160142 0.081863
v 0.500000 1.160142 1.081863
v 0.500000 -2.960746 0.663727
v -0.500000 -2.960746 1.663727
v 0.500000 -2.960746 1.663727
v -0.500000 -2.960746 0.663727
v -0.500000 -1.565956 1.081863
v 0.500000 -1.565956 0.081863
v 0.500000 -1.565956 1.081863
v -0.500000 -1.565956 0.081863
vn 1.0000 -0.0000 -0.0000
vn -1.0000 -0.0000 -0.0000
vn -0.0000 -0.4005 0.9163
vn -0.0000 0.4005 -0.9163
vn -0.0000 -0.3850 -0.9229
vn -0.0000 0.3850 0.9229
vt 0.625000 0.750000
vt 0.625000 0.500000
vt 0.625000 0.500000
vt 0.625000 0.750000
vt 0.625000 0.250000
vt 0.625000 0.000000
vt 0.625000 0.250000
vt 0.625000 1.000000
vt 0.500000 0.250000
vt 0.562500 0.250000
vt 0.562500 0.500000
vt 0.500000 0.500000
vt 0.562500 0.750000
vt 0.500000 0.750000
vt 0.500000 0.000000
vt 0.562500 0.000000
vt 0.562500 1.000000
vt 0.500000 1.000000
s 0
usemtl Red
f 36/26/7 33/27/7 30/28/7 31/29/7
f 35/30/8 34/31/8 32/31/8 29/32/8
f 34/33/9 36/26/9 31/29/9 32/33/9
f 33/27/10 35/30/10 29/32/10 30/28/10
f 40/34/11 44/35/11 42/36/11 37/37/11
f 37/37/7 42/36/7 43/38/7 39/39/7
f 38/40/8 41/41/8 44/35/8 40/34/8
f 39/39/12 43/38/12 41/42/12 38/43/12
o White
v 0.500000 -5.750324 1.827453
v 0.500000 -5.750324 2.827453
v -0.500000 -5.750324 1.827453
v -0.500000 -5.750324 2.827453
v 0.500000 5.154072 1.827453
v 0.500000 5.154072 2.827453
v -0.500000 5.154072 1.827453
v -0.500000 5.154072 2.827453
vn -0.0000 -1.0000 -0.0000
vn -0.0000 1.0000 -0.0000
vt 0.125000 0.500000
vt 0.375000 0.500000
vt 0.375000 0.750000
vt 0.125000 0.750000
vt 0.625000 0.500000
vt 0.875000 0.500000
vt 0.875000 0.750000
vt 0.625000 0.750000
s 0
usemtl White
f 47/44/13 45/45/13 46/46/13 48/47/13
f 49/48/14 51/49/14 52/50/14 50/51/14
