# Blender 4.2.1 LTS
# www.blender.org
mtllib player.mtl
o White
v 7.526362 -1.725231 -1.014008
v 7.706604 -2.200732 -0.824940
v 7.526362 -1.725231 1.014008
v 7.706604 -2.200732 0.824940
v -3.930000 0.460000 -1.552724
v -3.930000 -0.460000 -1.940000
v -3.930000 0.460000 1.552724
v -3.930000 -0.460000 1.940000
v -5.263657 0.911874 -2.474853
v -3.686107 -1.149942 -2.474853
v -5.263657 0.911874 2.474853
v -3.686107 -1.149942 2.474853
v -17.735046 0.911874 -2.474853
v -17.735046 -0.911874 -2.474853
v -17.735046 0.911874 2.474853
v -17.735046 -0.911874 2.474853
v -8.566507 1.599307 -0.515961
v -8.566507 1.599307 0.515961
v -16.938229 2.151187 -1.105009
v -16.938229 2.151187 1.105009
v -9.061988 -0.560568 6.006446
v -9.061988 -0.911874 6.006446
v -17.735046 0.052542 6.006446
v -17.735046 -0.911874 6.006446
v -9.061988 -0.560568 -5.967370
v -9.061988 -0.911874 -5.967370
v -17.735046 0.052542 -5.967370
v -17.735046 -0.911874 -5.967370
v -15.235815 -2.069401 9.428727
v -15.235815 -2.326921 9.428727
v -21.505613 -2.069401 11.861546
v -21.505613 -2.326921 11.861546
v -15.235815 -2.069401 -9.401978
v -15.235815 -2.326921 -9.401978
v -21.505613 -2.069401 -11.834797
v -21.505613 -2.326921 -11.834797
v -5.090968 1.458486 1.585196
v -5.090968 1.458486 -1.585196
v -17.735046 1.330949 1.842232
v -17.735046 1.330949 -1.842232
v -8.452520 2.110179 -0.515961
v -8.452520 2.110179 0.515961
v -16.824242 2.846462 -2.014294
v -16.824242 2.846462 2.014294
v -3.930000 -0.460000 0.000000
v 7.526362 -1.725231 0.000000
v -3.930000 0.460000 0.000000
v 7.706604 -2.200732 0.000000
v -5.263657 -0.911874 0.000000
v -5.263657 0.911874 0.000000
v -17.735046 -0.911874 0.000000
v -17.735046 0.911874 0.000000
v -5.090968 1.458486 0.000000
v -17.735046 1.330949 0.000000
v -8.566507 1.599307 0.000000
v -16.938229 2.151187 0.000000
v -8.452520 2.110179 0.000000
v -12.628338 1.884699 0.000000
v -3.930000 0.460000 -0.776362
v 7.706604 -2.200732 -0.522825
v -5.263657 0.911874 -1.237427
v -17.735046 0.911874 -1.237427
v -5.090968 1.458486 -0.792598
v -17.735046 1.330949 -0.921116
v -8.566507 1.599307 -0.257981
v -16.938229 2.151187 -0.552504
v -8.452520 2.110179 -0.257981
v -15.589986 2.846462 -0.967532
v -3.930000 -0.460000 -0.970000
v 7.526362 -1.725231 -0.507004
v -5.263657 -0.911874 -1.237427
v -17.735046 -0.911874 -1.237427
v -3.930000 -0.460000 0.970000
v 7.526362 -1.725231 0.507004
v -5.263657 -0.911874 1.237427
v -17.735046 -0.911874 1.237427
v -3.930000 0.460000 0.776362
v 7.706604 -2.200732 0.522825
v -5.263657 0.911874 1.237427
v -17.735046 0.911874 1.237427
v -5.090968 1.458486 0.792598
v -17.735046 1.330949 0.921116
v -8.566507 1.599307 0.257981
v -16.938229 2.151187 0.552504
v -8.452520 2.110179 0.257981
v -15.589986 2.846462 0.967532
v -11.878377 2.943834 -2.198087
v -11.878377 2.943834 2.198087
v -7.087875 1.269391 -0.515961
v -7.087875 1.269391 0.515961
v -6.973888 1.780264 -0.515961
v -6.973888 1.780264 0.515961
v -7.087875 1.269391 -0.257981
v -6.973888 1.780264 -0.257981
v -7.087875 1.269391 0.257981
v -6.973888 1.780264 0.257981
v -5.937319 -1.716397 -2.033791
v -5.937319 -1.716397 2.033791
v -15.732993 -1.492378 -2.033791
v -15.732993 -1.492378 2.033791
v -7.037271 -1.492378 -1.016896
v -15.732993 -1.492378 -1.016896
v -7.037271 -1.492378 1.016896
v -15.732993 -1.492378 1.016896
v -18.934280 0.859201 -2.474853
v -18.934280 -0.082418 -2.474853
v -18.934280 0.859201 2.474853
v -18.934280 -0.082418 2.474853
v -18.934280 0.859201 -1.237427
v -18.934280 -0.082418 -1.237427
v -18.934280 -0.082418 1.237427
v -18.934280 0.859201 1.237427
v -13.077613 2.461317 -1.186088
v -13.077613 2.461317 1.186088
vn 0.3450 0.2375 -0.9081
vn 0.0553 -0.9872 -0.1496
vn 0.3450 0.2375 0.9081
vn 0.0553 -0.9872 0.1496
vn 0.4809 0.8056 -0.3460
vn 0.3619 -0.7388 -0.5685
vn 0.4809 0.8056 0.3460
vn 0.3619 -0.7388 0.5685
vn 0.3031 0.8740 -0.3797
vn 0.3255 -0.9451 0.0295
vn 0.3031 0.8740 0.3797
vn 0.3255 -0.9451 -0.0295
vn -0.0975 0.9493 -0.2989
vn -0.3150 -0.9111 -0.2660
vn -0.0975 0.9493 0.2989
vn -0.3150 -0.9111 0.2660
vn -0.0089 0.8399 -0.5427
vn -0.0089 0.8399 0.5427
vn -0.3568 0.7307 -0.5821
vn -0.3568 0.7307 0.5821
vn 0.1744 0.8121 0.5569
vn 0.2789 -0.9239 0.2620
vn 0.1115 0.8790 0.4636
vn -0.0563 -0.9365 -0.3461
vn 0.1744 0.8129 -0.5557
vn 0.2788 -0.9244 -0.2603
vn 0.1114 0.8796 -0.4624
vn -0.0562 -0.9369 0.3451
vn 0.3006 0.5622 0.7704
vn 0.0878 -0.9958 -0.0256
vn 0.2464 0.6059 0.7564
vn 0.1664 -0.9606 0.2227
vn 0.3007 0.5636 -0.7694
vn 0.0878 -0.9958 0.0254
vn 0.2463 0.6068 -0.7557
vn 0.1661 -0.9606 -0.2228
vn 0.1546 0.9536 0.2582
vn 0.1546 0.9536 -0.2582
vn -0.2330 0.8735 0.4274
vn -0.2330 0.8735 -0.4274
vn 0.2654 0.4701 -0.8418
vn 0.2654 0.4701 0.8418
vn -0.6848 0.4991 -0.5311
vn -0.6848 0.4991 0.5311
vn 0.0196 -0.9998 -0.0000
vn 0.9351 0.3544 -0.0000
vn 0.3209 0.9471 -0.0000
vn 0.0432 -0.9991 -0.0000
vn 0.0831 -0.9965 -0.0000
vn 0.6180 0.7862 -0.0000
vn -0.1163 -0.9932 -0.0000
vn -1.0000 -0.0000 -0.0000
vn 0.1685 0.9857 -0.0000
vn -0.9001 0.4358 -0.0000
vn 0.1666 0.9860 -0.0000
vn -0.2726 0.9621 -0.0000
vn 0.4074 0.9133 -0.0000
vn -0.0126 0.9999 -0.0000
vn -0.3803 0.9077 0.1773
vn 0.0617 0.9601 0.2726
vn -0.3823 0.8517 0.3585
vn 0.2586 0.8862 0.3844
vn -0.2327 0.8384 0.4929
vn 0.0186 -0.9986 0.0492
vn 0.1816 -0.9512 0.2495
vn -0.2242 -0.9656 0.1319
vn 0.0186 -0.9986 -0.0492
vn 0.1816 -0.9512 -0.2495
vn -0.2242 -0.9656 -0.1319
vn -0.3803 0.9077 -0.1773
vn 0.0617 0.9601 -0.2726
vn -0.3823 0.8517 -0.3585
vn 0.2586 0.8862 -0.3844
vn -0.2327 0.8384 -0.4929
vn 0.0269 -0.9876 -0.1547
vn 0.0269 -0.9876 0.1547
vn 0.3494 0.6943 -0.6292
vn 0.3494 0.6943 0.6292
vn 0.0581 -0.9948 -0.0836
vn 0.0581 -0.9948 0.0836
vn -0.0853 -0.9864 -0.1402
vn -0.0853 -0.9864 0.1402
vn 0.0680 -0.9075 0.4146
vn -0.0930 -0.9438 0.3171
vn 0.0680 -0.9075 -0.4146
vn -0.0930 -0.9438 -0.3171
vn -0.0419 0.9540 -0.2968
vn -0.2343 -0.3387 -0.9113
vn -0.0419 0.9540 0.2968
vn -0.2343 -0.3387 0.9113
vt 0.773336 0.850319
vt 0.754397 0.804391
vt 0.784969 0.539567
vt 0.824577 0.624906
vt 0.359621 0.086314
vt 0.270451 0.097173
vt 0.201260 0.099551
vt 0.403352 0.053572
vt 0.118760 0.662977
vt 0.129783 0.841453
vt 0.122339 0.841453
vt 0.094858 0.662977
vt 0.840029 0.375313
vt 0.839045 0.328305
vt 0.851529 0.328305
vt 0.847468 0.375313
vt 0.659244 0.624330
vt 0.700988 0.539569
vt 0.732317 0.801568
vt 0.715969 0.845154
vt 0.201260 0.247203
vt 0.056023 0.267805
vt 0.050179 0.221985
vt 0.195970 0.186650
vt 0.290642 0.190552
vt 0.375782 0.161052
vt 0.429111 0.172695
vt 0.227018 0.218675
vt 0.285594 0.167207
vt 0.249900 0.182918
vt 0.363662 0.104998
vt 0.409792 0.083353
vt 0.995812 0.475256
vt 0.995812 0.657465
vt 0.981747 0.573530
vt 0.981747 0.479454
vt 0.587591 0.946619
vt 0.587591 0.773958
vt 0.644633 0.806757
vt 0.650568 0.928003
vt 0.716334 0.158860
vt 0.702719 0.158860
vt 0.680313 0.086593
vt 0.706107 0.086338
vt 0.459024 0.063076
vt 0.463149 0.082151
vt 0.625827 0.285220
vt 0.475523 0.264686
vt 0.480879 0.210718
vt 0.631542 0.243934
vt 0.699456 0.287799
vt 0.668964 0.287799
vt 0.684553 0.244253
vt 0.707250 0.244253
vt 0.501562 0.412633
vt 0.614690 0.364134
vt 0.631886 0.572570
vt 0.555690 0.568499
vt 0.475523 0.598938
vt 0.576924 0.628052
vt 0.576924 0.795964
vt 0.505143 0.768821
vt 0.552077 0.594867
vt 0.628273 0.598938
vt 0.291015 0.295877
vt 0.324296 0.288171
vt 0.225656 0.400679
vt 0.201260 0.406328
vt 0.475523 0.795964
vt 0.577537 0.795964
vt 0.536193 0.912937
vt 0.477094 0.895876
vt 0.114622 0.608541
vt 0.120147 0.633669
vt 0.035025 0.662977
vt 0.029500 0.637848
vt 0.057081 0.378861
vt 0.171238 0.424360
vt 0.178776 0.458640
vt 0.235700 0.859723
vt 0.235700 0.866080
vt 0.201260 0.892428
vt 0.201260 0.872897
vt 0.743563 0.158860
vt 0.757177 0.158860
vt 0.775343 0.244253
vt 0.752646 0.244253
vt 0.045529 0.134888
vt 0.157795 0.170322
vt 0.524464 0.204769
vt 0.633254 0.160530
vt 0.027413 0.073939
vt 0.148161 0.120284
vt 0.530257 0.152271
vt 0.502015 0.236116
vt 0.507808 0.183618
vt 0.641871 0.086813
vt 0.474205 0.455716
vt 0.467853 0.455616
vt 0.467853 0.406428
vt 0.474205 0.406528
vt 0.094858 0.858987
vt 0.092782 0.860161
vt 0.040555 0.865187
vt 0.041292 0.756369
vt 0.729948 0.158860
vt 0.729948 0.244253
vt 0.235700 0.847009
vt 0.235700 0.853366
vt 0.201260 0.853366
vt 0.201260 0.833836
vt 0.760440 0.287799
vt 0.729948 0.287799
vt 0.422671 0.142915
vt 0.416232 0.113134
vt 0.467274 0.101226
vt 0.471398 0.120302
vt 0.914878 0.612977
vt 0.914175 0.611735
vt 0.880384 0.660378
vt 0.867701 0.557734
vt 0.392727 0.965259
vt 0.362235 0.965258
vt 0.362235 0.813858
vt 0.392727 0.813858
vt 0.699456 0.477299
vt 0.729948 0.477299
vt 0.371742 0.142367
vt 0.367702 0.123683
vt 0.275498 0.120518
vt 0.280546 0.143863
vt 0.243461 0.153137
vt 0.237021 0.123356
vt 0.814282 0.375313
vt 0.814077 0.328305
vt 0.826561 0.328305
vt 0.827156 0.375312
vt 0.166564 0.662977
vt 0.155549 0.841453
vt 0.142666 0.841453
vt 0.142662 0.662977
vt 0.190466 0.662977
vt 0.162994 0.841453
vt 0.806843 0.375313
vt 0.801593 0.328306
vt 0.650568 0.744524
vt 0.639048 0.773958
vt 0.576924 0.756573
vt 0.589454 0.734120
vt 0.753790 0.086338
vt 0.779583 0.086593
vt 0.790932 0.287799
vt 0.235700 0.840652
vt 0.201260 0.814305
vt 0.461502 0.455516
vt 0.461502 0.406328
vt 0.824577 0.663161
vt 0.824905 0.663741
vt 0.760440 0.477299
vt 0.967159 0.663741
vt 0.967159 0.475256
vt 0.981747 0.480694
vt 0.981747 0.578011
vt 0.475523 0.139377
vt 0.461502 0.455716
vt 0.467859 0.455716
vt 0.467859 0.489692
vt 0.461502 0.489692
vt -0.000000 0.822318
vt 0.004445 0.819803
vt 0.331743 0.965258
vt 0.331743 0.813858
vt 0.979477 0.457305
vt 0.973311 0.455775
vt 0.984404 0.407854
vt 0.990569 0.409384
vt 0.994767 0.947943
vt 0.988598 0.949456
vt 0.976133 0.901873
vt 0.982303 0.900360
vt 0.467859 0.455716
vt 0.474216 0.455716
vt 0.474216 0.489692
vt 0.467859 0.489692
vt 0.894936 0.375313
vt 0.894936 0.428129
vt 0.876061 0.461749
vt 0.876061 0.408933
vt 0.456912 0.864815
vt 0.456912 0.813858
vt 0.475147 0.847665
vt 0.475147 0.898622
vt 0.172459 0.150034
vt 0.182093 0.200072
vt 0.993835 0.370601
vt 1.000000 0.372130
vt 0.967159 0.864507
vt 0.973329 0.862994
vt 0.417789 0.919422
vt 0.392727 0.934242
vt 0.392727 0.813858
vt 0.417784 0.813858
vt 0.442846 0.934241
vt 0.417793 0.919423
vt 0.417789 0.813858
vt 0.442846 0.813858
vt 0.632598 0.598939
vt 0.576924 0.632609
vt 0.914878 0.603049
vt 0.945362 0.603729
vt 0.949460 0.663741
vt 0.924409 0.663182
vt 0.853527 0.323811
vt 0.853527 0.172110
vt 0.912953 0.196506
vt 0.912953 0.302280
vt 0.967159 0.832457
vt 0.911601 0.820597
vt 0.917262 0.701713
vt 0.942827 0.356525
vt 0.973312 0.355845
vt 0.963782 0.415979
vt 0.938730 0.416537
vt 0.881326 0.342897
vt 0.938730 0.315577
vt 0.916794 0.517130
vt 0.947278 0.517810
vt 0.251280 0.844797
vt 0.251280 0.814305
vt 0.266861 0.814305
vt 0.266861 0.844797
vt 0.456912 0.813858
vt 0.456912 0.996067
vt 0.442846 0.912133
vt 0.442846 0.818056
vt 0.235700 0.844797
vt 0.235700 0.814305
vt 0.251280 0.814305
vt 0.251280 0.844797
vt 0.940911 0.270607
vt 0.971396 0.269927
vt 0.949460 0.607799
vt 0.949460 0.419314
vt 0.964048 0.424752
vt 0.964048 0.522069
s 1
usemtl White
f 4/1/4 3/2/3 7/3/7 8/4/8
f 5/5/5 6/6/6 10/7/10 9/8/9
f 73/9/67 78/10/48 4/11/4 8/12/8
f 78/13/48 74/14/46 3/15/3 4/16/4
f 6/17/6 5/18/5 1/19/1 2/20/2
f 9/21/9 13/22/13 40/23/40 38/24/38
f 8/25/8 7/26/7 11/27/11 12/28/12
f 73/29/67 8/25/8 12/28/12 75/30/68
f 59/31/47 5/5/5 9/8/9 61/32/50
f 13/33/13 14/34/14 106/35/88 105/36/87
f 12/37/12 16/38/16 100/39/82 98/40/80
f 84/41/72 20/42/20 44/43/44 86/44/74
f 61/32/50 9/8/9 38/45/38 63/46/53
f 15/47/15 11/48/11 37/49/37 39/50/39
f 80/51/70 15/52/15 39/53/39 82/54/54
f 21/55/21 23/56/23 31/57/31 29/58/29
f 26/59/26 28/60/28 36/61/36 34/62/34
f 30/63/30 29/58/29 31/57/31 32/64/32
f 22/65/22 21/66/21 29/67/29 30/68/30
f 24/69/24 22/70/22 30/71/30 32/72/32
f 33/73/33 34/74/34 36/75/36 35/76/35
f 27/77/27 25/78/25 33/73/33 35/76/35
f 25/78/25 26/79/26 34/74/34 33/73/33
f 83/80/71 18/81/18 37/82/37 81/83/53
f 66/84/61 19/85/19 40/86/40 64/87/54
f 19/88/19 17/89/17 38/24/38 40/23/40
f 18/90/18 20/91/20 39/50/39 37/49/37
f 17/89/17 19/88/19 43/92/43 41/93/41
f 42/94/42 18/90/18 90/95/76 92/96/78
f 20/91/20 18/90/18 42/94/42 44/97/44
f 83/98/71 55/99/55 57/100/57 85/101/73
f 85/102/73 57/103/57 58/104/58 86/105/74
f 84/41/72 56/106/56 54/107/54 82/54/54
f 65/108/60 55/109/55 53/110/53 63/111/53
f 62/112/59 52/113/52 54/107/54 64/87/54
f 79/114/50 50/115/50 53/116/53 81/117/53
f 66/118/61 56/119/56 58/120/58 68/121/63
f 71/122/65 49/123/49 51/124/51 72/125/66
f 76/126/69 80/51/70 52/113/52 51/127/51
f 77/128/47 47/129/47 50/115/50 79/114/50
f 69/130/64 45/131/45 49/132/49 71/133/65
f 60/134/48 70/135/46 46/136/46 48/137/48
f 69/138/64 60/139/48 48/140/48 45/141/45
f 6/142/6 2/143/2 60/139/48 69/138/64
f 2/144/2 1/145/1 70/135/46 60/134/48
f 6/6/6 69/130/64 71/133/65 10/7/10
f 75/146/68 12/147/12 98/148/80 103/149/85
f 19/85/19 66/84/61 68/150/63 43/151/43
f 13/152/13 62/112/59 64/87/54 40/86/40
f 17/153/17 65/108/60 63/111/53 38/154/38
f 55/99/55 65/155/60 67/156/62 57/100/57
f 57/157/57 67/158/62 68/121/63 58/120/58
f 56/106/56 66/84/61 64/87/54 54/107/54
f 50/115/50 61/32/50 63/46/53 53/116/53
f 51/127/51 52/113/52 62/112/59 72/159/66
f 47/129/47 59/31/47 61/32/50 50/115/50
f 7/26/7 77/128/47 79/114/50 11/27/11
f 72/160/66 62/161/59 109/162/89 110/163/90
f 11/27/11 79/114/50 81/117/53 37/164/37
f 20/42/20 84/41/72 82/54/54 39/53/39
f 18/165/18 83/166/71 95/167/75 90/168/76
f 55/109/55 83/80/71 81/83/53 53/110/53
f 52/113/52 80/51/70 82/54/54 54/107/54
f 56/169/56 84/170/72 86/105/74 58/104/58
f 49/123/49 75/171/68 76/172/69 51/124/51
f 45/131/45 73/29/67 75/30/68 49/132/49
f 48/137/48 46/136/46 74/14/46 78/13/48
f 45/141/45 48/140/48 78/10/48 73/9/67
f 93/173/76 89/174/75 91/175/77 94/176/78
f 90/177/76 95/178/75 96/179/77 92/180/78
f 65/181/60 17/182/17 89/183/75 93/184/76
f 67/185/62 65/186/60 93/187/76 94/188/78
f 83/189/71 85/190/73 96/191/77 95/192/75
f 17/89/17 41/93/41 91/193/77 89/194/75
f 41/195/41 67/196/62 94/176/78 91/175/77
f 85/197/73 42/198/42 92/180/78 96/179/77
f 103/199/85 98/200/80 100/201/82 104/202/86
f 97/203/79 101/204/83 102/205/84 99/206/81
f 76/207/69 75/146/68 103/149/85 104/208/86
f 16/209/16 76/210/69 104/211/86 100/212/82
f 71/213/65 72/214/66 102/215/84 101/216/83
f 14/160/14 10/217/10 97/218/79 99/219/81
f 72/220/66 14/221/14 99/222/81 102/223/84
f 10/224/10 71/213/65 101/216/83 97/225/79
f 76/210/69 16/209/16 108/226/90 111/227/88
f 15/228/15 80/229/70 112/230/87 107/231/89
f 80/232/70 76/233/69 111/234/88 112/235/87
f 62/236/59 13/237/13 105/238/87 109/239/89
f 14/221/14 72/220/66 110/240/90 106/241/88
f 16/242/16 15/243/15 107/244/89 108/245/90
l 87 113
l 88 114
o Plexiglas
v 7.526362 -1.725231 -1.014008
v 7.526362 -1.725231 1.014008
v -3.930000 0.460000 -1.552724
v -3.930000 0.460000 1.552724
v 6.756721 -1.293575 -0.790229
v 6.756721 -1.293575 0.790229
v -3.054862 1.183992 -1.073678
v -3.054862 1.183992 1.073678
v 7.526362 -1.725231 0.000000
v -3.930000 0.460000 0.000000
v 6.756721 -1.293575 0.000000
v -3.054862 1.183992 0.000000
v -3.930000 0.460000 -0.776362
v -3.054862 1.183992 -0.536839
v 7.526362 -1.725231 -0.507004
v 6.756721 -1.293575 -0.395114
v 7.526362 -1.725231 0.507004
v 6.756721 -1.293575 0.395114
v -3.930000 0.460000 0.776362
v -3.054862 1.183992 0.536839
vn 0.4512 0.8666 -0.2130
vn 0.4512 0.8666 0.2130
vn -0.0976 0.6896 -0.7176
vn -0.0976 0.6896 0.7176
vn 0.2934 0.8692 -0.3980
vn 0.2934 0.8692 0.3980
vn -0.0135 0.9906 -0.1361
vn -0.0135 0.9906 0.1361
vn 0.4892 0.8722 -0.0000
vn -0.6374 0.7705 -0.0000
vn 0.3331 0.9429 -0.0000
vn -0.0173 0.9999 -0.0000
vt 0.800652 0.394443
vt 0.800652 0.375313
vt 0.876061 0.387117
vt 0.876061 0.400346
vt 0.836017 0.283030
vt 0.840308 0.000000
vt 0.853527 0.000000
vt 0.845746 0.283030
vt 0.814077 0.328305
vt 0.801593 0.328306
vt 0.806830 0.283030
vt 0.816559 0.283030
vt 0.732317 0.801568
vt 0.700988 0.539569
vt 0.744352 0.477299
vt 0.744352 0.757273
vt 0.784969 0.539567
vt 0.754397 0.804391
vt 0.744352 0.760499
vt 0.744352 0.477300
vt 0.839045 0.328305
vt 0.826561 0.328305
vt 0.826288 0.283030
vt 0.813871 0.000000
vt 0.827089 0.000000
vt 0.800652 0.432704
vt 0.800652 0.413574
vt 0.876061 0.413574
vt 0.876061 0.426803
vt 0.800652 0.451835
vt 0.876061 0.440031
vt 0.800652 0.000000
vt 0.851529 0.328305
s 1
usemtl Plexiglas
f 133/246/100 118/247/94 122/248/98 134/249/102
f 132/250/101 134/251/102 122/252/98 120/253/96
f 129/254/99 115/255/91 119/256/95 130/257/101
f 115/258/91 117/259/93 121/260/97 119/261/95
f 118/262/94 116/263/92 120/264/96 122/265/98
f 131/266/99 123/267/99 125/268/101 132/250/101
f 130/257/101 128/269/102 126/270/102 125/268/101
f 127/271/100 124/272/100 126/273/102 128/274/102
f 117/275/93 127/271/100 128/274/102 121/276/97
f 119/256/95 121/277/97 128/269/102 130/257/101
f 123/267/99 129/254/99 130/257/101 125/268/101
f 116/278/92 131/266/99 132/250/101 120/253/96
f 125/268/101 126/270/102 134/251/102 132/250/101
f 124/272/100 133/246/100 134/249/102 126/273/102
o Red
v -17.735046 0.052542 6.006446
v -17.735046 -0.911874 6.006446
v -17.735046 0.052542 -5.967370
v -17.735046 -0.911874 -5.967370
v -21.505613 -2.069401 11.861546
v -21.505613 -2.326921 11.861546
v -21.505613 -2.069401 -11.834797
v -21.505613 -2.326921 -11.834797
v -8.452520 2.110179 -0.515961
v -8.452520 2.110179 0.515961
v -16.824242 2.846462 -2.014294
v -16.824242 2.846462 2.014294
v -8.452520 2.110179 -0.257981
v -15.589986 2.846462 -0.967532
v -8.452520 2.110179 0.257981
v -15.589986 2.846462 0.967532
v -11.878377 2.943834 -2.352908
v -11.878377 2.943834 2.352908
v -17.276892 3.680117 -2.869328
v -17.276892 3.680117 2.869328
v -11.878377 2.943834 -2.198087
v -16.971821 3.680117 -2.642149
v -11.878377 2.943834 2.198087
v -16.971821 3.680117 2.642149
v -19.554483 -0.714832 7.093105
v -19.554483 -1.050662 7.093105
v -19.554483 -0.714832 -7.056264
v -19.554483 -1.050662 -7.056264
v -23.325050 -1.682296 11.860428
v -23.325050 -1.807864 11.860428
v -23.325050 -1.682296 -11.835915
v -23.325050 -1.807864 -11.835915
vn -0.2321 0.9689 -0.0858
vn -0.4663 -0.4144 -0.7816
vn -0.2318 0.9690 0.0854
vn -0.4671 -0.4144 0.7811
vn -0.0136 0.5877 0.8090
vn -0.2044 -0.9727 -0.1098
vn -0.0127 0.5887 -0.8083
vn -0.2043 -0.9728 0.1095
vn 0.2842 0.9482 -0.1416
vn 0.2842 0.9482 0.1416
vn -0.2468 -0.9010 -0.3568
vn -0.2468 -0.9010 0.3568
vn 0.1848 0.9758 0.1168
vn 0.0015 0.9214 0.3887
vn 0.1848 0.9758 -0.1168
vn 0.0015 0.9214 -0.3887
vn 0.2785 0.5166 -0.8097
vn 0.2785 0.5166 0.8097
vn -0.0852 0.9900 -0.1127
vn -0.0852 0.9900 0.1127
vn 0.1458 0.9820 0.1203
vn 0.0006 0.9921 0.1256
vn 0.1458 0.9820 -0.1203
vn 0.0006 0.9921 -0.1256
vn -0.2196 0.9755 -0.0131
vn -0.3919 -0.7610 -0.5170
vn -0.2194 0.9755 0.0130
vn -0.3923 -0.7613 0.5163
vn -0.2028 0.9569 0.2080
vn -0.3141 -0.8872 0.3380
vn -0.2025 0.9570 -0.2079
vn -0.3135 -0.8870 -0.3391
vt 0.263628 0.608815
vt 0.242693 0.814305
vt 0.209380 0.772367
vt 0.251878 0.637061
vt 0.029500 0.637848
vt 0.035025 0.662977
vt 0.002694 0.615342
vt 0.000000 0.603089
vt 0.641871 0.086813
vt 0.530257 0.152271
vt 0.583718 0.067830
vt 0.659244 -0.000000
vt 0.094858 0.858987
vt 0.041292 0.756369
vt 0.061770 0.662977
vt 0.094858 0.756221
vt 0.977012 0.267754
vt 0.973311 0.266836
vt 0.985083 0.172110
vt 0.990066 0.174697
vt 0.994767 0.759132
vt 0.991065 0.760040
vt 0.980588 0.666377
vt 0.985839 0.663741
vt 0.779583 0.086593
vt 0.753790 0.086338
vt 0.795054 0.000000
vt 0.800652 0.000063
vt 0.706107 0.086338
vt 0.680313 0.086593
vt 0.659244 0.000063
vt 0.664842 0.000000
vt 0.148161 0.120284
vt 0.027413 0.073939
vt 0.000000 -0.000000
vt 0.081237 0.058905
vt 0.867701 0.557734
vt 0.824905 0.663741
vt 0.824577 0.572421
vt 0.844981 0.477299
vt 1.000000 0.372130
vt 0.993835 0.370601
vt 0.973329 0.862994
vt 0.967159 0.864507
vt 0.230160 0.609748
vt 0.201260 0.762154
vt 0.410798 0.636449
vt 0.432549 0.609162
vt 0.461502 0.761790
vt 0.453369 0.771993
vt 0.201260 0.530379
vt 0.057081 0.378861
vt 0.046938 0.465227
vt 0.419964 0.813858
vt 0.399040 0.608155
vt 0.628273 0.598938
vt 0.631886 0.572570
vt 0.659244 0.535931
vt 0.657482 0.548789
vt 0.461502 0.529793
vt 0.614690 0.364134
vt 0.626134 0.442912
s 1
usemtl Red
f 136/279/104 140/280/108 164/281/132 160/282/128
f 141/283/109 142/284/110 166/285/134 165/286/133
f 146/287/114 144/288/112 152/289/120 154/290/122
f 149/291/117 150/292/118 158/293/126 157/294/125
f 155/295/123 151/296/119 153/297/121 156/298/124
f 152/299/120 157/300/125 158/301/126 154/302/122
f 145/303/113 148/304/116 156/305/124 153/306/121
f 150/307/118 146/308/114 154/309/122 158/310/126
f 143/311/111 145/312/113 153/313/121 151/314/119
f 148/315/116 147/316/115 155/317/123 156/318/124
f 147/319/115 143/320/111 151/296/119 155/295/123
f 144/321/112 149/322/117 157/300/125 152/299/120
f 159/323/127 160/282/128 164/281/132 163/324/131
f 162/325/130 161/326/129 165/327/133 166/328/134
f 135/329/103 136/279/104 160/282/128 159/323/127
f 137/330/105 141/283/109 165/286/133 161/331/129
f 142/332/110 138/333/106 162/325/130 166/328/134
f 140/334/108 139/335/107 163/336/131 164/337/132
f 138/333/106 137/338/105 161/326/129 162/325/130
f 139/335/107 135/339/103 159/340/127 163/336/131
o LightBlue
v -5.263657 0.911874 -2.474853
v -3.686107 -1.149942 -2.474853
v -5.263657 0.911874 2.474853
v -3.686107 -1.149942 2.474853
v -17.735046 0.911874 -2.474853
v -17.735046 -0.911874 -2.474853
v -17.735046 0.911874 2.474853
v -17.735046 -0.911874 2.474853
v -9.061988 -0.560568 6.006446
v -9.061988 -0.911874 6.006446
v -17.735046 0.052542 6.006446
v -17.735046 -0.911874 6.006446
v -9.061988 -0.560568 -5.967370
v -9.061988 -0.911874 -5.967370
v -17.735046 0.052542 -5.967370
v -17.735046 -0.911874 -5.967370
vn -0.0105 -0.9996 0.0257
vn 0.0274 0.9436 -0.3299
vn 0.5404 0.3533 0.7637
vn 0.0274 0.9448 0.3266
vn -1.0000 -0.0000 -0.0000
vn -0.0105 -0.9996 -0.0260
vn 0.5369 0.3510 -0.7672
vt 0.911601 0.663741
vt 0.911601 0.835850
vt 0.824580 0.769032
vt 0.824577 0.663742
vt 0.056023 0.267805
vt 0.201260 0.247203
vt 0.171238 0.424360
vt 0.057081 0.378861
vt 0.227018 0.218675
vt 0.429111 0.172695
vt 0.324296 0.288171
vt 0.291015 0.295877
vt 0.475523 0.264686
vt 0.625827 0.285220
vt 0.614690 0.364134
vt 0.501562 0.412633
vt 0.213801 0.406328
vt 0.331743 0.554653
vt 0.263628 0.608815
vt 0.201260 0.530379
vt 0.331743 0.554512
vt 0.449862 0.406328
vt 0.461502 0.529793
vt 0.399040 0.608155
vt 0.853527 0.172110
vt 0.853527 0.000001
vt 0.939587 -0.000000
vt 0.939590 0.105289
vt 0.403352 0.053572
vt 0.201260 0.099551
vt 0.228703 0.007706
vt 0.261983 -0.000000
s 0
usemtl LightBlue
f 174/341/135 170/342/135 176/343/135 178/344/135
f 171/345/136 167/346/136 179/347/136 181/348/136
f 170/349/137 169/350/137 175/351/137 176/352/137
f 169/353/138 173/354/138 177/355/138 175/356/138
f 173/357/139 174/358/139 178/359/139 177/360/139
f 172/361/139 171/362/139 181/363/139 182/364/139
f 168/365/140 172/366/140 182/367/140 180/368/140
f 167/369/141 168/370/141 180/371/141 179/372/141
o Turbine
v -18.934280 0.859201 -2.474853
v -18.934280 -0.082418 -2.474853
v -18.934280 0.859201 2.474853
v -18.934280 -0.082418 2.474853
v -18.934280 0.859201 -1.237427
v -18.934280 -0.082418 -1.237427
v -18.934280 -0.082418 1.237427
v -18.934280 0.859201 1.237427
vn -1.0000 -0.0000 -0.0000
vt 0.940911 0.270607
vt 0.938730 0.172790
vt 0.969215 0.172110
vt 0.971396 0.269927
vt 0.916794 0.517130
vt 0.918976 0.419314
vt 0.949460 0.419994
vt 0.947278 0.517810
s 1
usemtl Turbine
f 188/373/142 187/374/142 183/375/142 184/376/142
f 186/377/142 185/378/142 190/379/142 189/380/142
