# Blender 4.2.1 LTS
# www.blender.org
mtllib playerf.mtl
o White
v 7.526362 -1.725231 -1.014008
v 7.706604 -2.200732 -0.824940
v 7.526362 -1.725231 1.014008
v 7.706604 -2.200732 0.824940
v -3.930000 0.460000 -1.552724
v -3.930000 -0.460000 -1.940000
v -3.930000 0.460000 1.552724
v -3.930000 -0.460000 1.940000
v -5.263657 0.911874 -2.474853
v -3.686107 -1.149942 -2.474853
v -5.263657 0.911874 2.474853
v -3.686107 -1.149942 2.474853
v -17.735046 0.911874 -2.474853
v -17.735046 -0.911874 -2.474853
v -17.735046 0.911874 2.474853
v -17.735046 -0.911874 2.474853
v -8.566507 1.599307 -0.515961
v -8.566507 1.599307 0.515961
v -16.938229 2.151187 -1.105009
v -16.938229 2.151187 1.105009
v -9.061988 -0.560568 6.006446
v -9.061988 -0.911874 6.006446
v -17.735046 0.052542 6.006446
v -17.735046 -0.911874 6.006446
v -9.061988 -0.560568 -5.967370
v -9.061988 -0.911874 -5.967370
v -17.735046 0.052542 -5.967370
v -17.735046 -0.911874 -5.967370
v -15.235815 -2.069401 9.428727
v -15.235815 -2.326921 9.428727
v -21.505613 -2.069401 11.861546
v -21.505613 -2.326921 11.861546
v -15.235815 -2.069401 -9.401978
v -15.235815 -2.326921 -9.401978
v -21.505613 -2.069401 -11.834797
v -21.505613 -2.326921 -11.834797
v -5.090968 1.458486 1.585196
v -5.090968 1.458486 -1.585196
v -17.735046 1.330949 1.842232
v -17.735046 1.330949 -1.842232
v -8.452520 2.110179 -0.515961
v -8.452520 2.110179 0.515961
v -16.824242 2.846462 -2.014294
v -16.824242 2.846462 2.014294
v -3.930000 -0.460000 0.000000
v 7.526362 -1.725231 0.000000
v -3.930000 0.460000 0.000000
v 7.706604 -2.200732 0.000000
v -5.263657 -0.911874 0.000000
v -5.263657 0.911874 0.000000
v -17.735046 -0.911874 0.000000
v -17.735046 0.911874 0.000000
v -5.090968 1.458486 0.000000
v -17.735046 1.330949 0.000000
v -8.566507 1.599307 0.000000
v -16.938229 2.151187 0.000000
v -8.452520 2.110179 0.000000
v -12.628338 1.884699 0.000000
v -3.930000 0.460000 -0.776362
v 7.706604 -2.200732 -0.522825
v -5.263657 0.911874 -1.237427
v -17.735046 0.911874 -1.237427
v -5.090968 1.458486 -0.792598
v -17.735046 1.330949 -0.921116
v -8.566507 1.599307 -0.257981
v -16.938229 2.151187 -0.552504
v -8.452520 2.110179 -0.257981
v -15.589986 2.846462 -0.967532
v -3.930000 -0.460000 -0.970000
v 7.526362 -1.725231 -0.507004
v -5.263657 -0.911874 -1.237427
v -17.735046 -0.911874 -1.237427
v -3.930000 -0.460000 0.970000
v 7.526362 -1.725231 0.507004
v -5.263657 -0.911874 1.237427
v -17.735046 -0.911874 1.237427
v -3.930000 0.460000 0.776362
v 7.706604 -2.200732 0.522825
v -5.263657 0.911874 1.237427
v -17.735046 0.911874 1.237427
v -5.090968 1.458486 0.792598
v -17.735046 1.330949 0.921116
v -8.566507 1.599307 0.257981
v -16.938229 2.151187 0.552504
v -8.452520 2.110179 0.257981
v -15.589986 2.846462 0.967532
v -11.878377 2.943834 -2.198087
v -11.878377 2.943834 2.198087
v -7.087875 1.269391 -0.515961
v -7.087875 1.269391 0.515961
v -6.973888 1.780264 -0.515961
v -6.973888 1.780264 0.515961
v -7.087875 1.269391 -0.257981
v -6.973888 1.780264 -0.257981
v -7.087875 1.269391 0.257981
v -6.973888 1.780264 0.257981
v -5.937319 -1.716397 -2.033791
v -5.937319 -1.716397 2.033791
v -15.732993 -1.492378 -2.033791
v -15.732993 -1.492378 2.033791
v -7.037271 -1.492378 -1.016896
v -15.732993 -1.492378 -1.016896
v -7.037271 -1.492378 1.016896
v -15.732993 -1.492378 1.016896
v -18.934280 0.859201 -2.474853
v -18.934280 -0.082418 -2.474853
v -18.934280 0.859201 2.474853
v -18.934280 -0.082418 2.474853
v -18.934280 0.859201 -1.237427
v -18.934280 -0.082418 -1.237427
v -18.934280 -0.082418 1.237427
v -18.934280 0.859201 1.237427
v -13.077613 2.461317 -1.186088
v -13.077613 2.461317 1.186088
vn 0.0963 0.1522 0.9837
vn 0.6842 0.4377 -0.5833
vn -0.1479 -0.9890 -0.0000
vn 0.9351 0.3544 -0.0000
vn 0.0963 0.1522 -0.9837
vn 0.0012 0.8444 -0.5358
vn 0.6842 0.4377 0.5833
vn 0.4841 -0.7630 -0.4283
vn 0.3209 0.9471 -0.0000
vn -0.0000 -0.0000 -1.0000
vn -0.0118 -0.6080 0.7939
vn -0.4570 0.8165 -0.3527
vn 0.9535 -0.3012 -0.0000
vn 0.0012 0.8444 0.5358
vn -1.0000 -0.0000 -0.0000
vn 0.1115 0.8790 0.4636
vn -0.0562 -0.9369 0.3451
vn 0.3617 -0.0000 0.9323
vn 0.4848 -0.0000 0.8746
vn -0.0563 -0.9365 -0.3461
vn 0.3617 -0.0000 -0.9323
vn 0.1114 0.8796 -0.4624
vn 0.4862 -0.0000 -0.8739
vn 0.0405 0.9992 -0.0000
vn -0.7173 0.6968 -0.0000
vn 0.0355 0.9031 -0.4279
vn 0.0355 0.9031 0.4279
vn 0.0521 -0.6074 -0.7927
vn -0.0000 -0.0000 1.0000
vn 0.0521 -0.6074 0.7927
vn 0.9760 -0.2178 -0.0000
vn -0.0038 0.7822 -0.6230
vn -0.0212 0.8257 0.5638
vn -0.0000 -1.0000 -0.0000
vn 0.3209 -0.9471 -0.0000
vn 0.4841 -0.7630 0.4283
vn 0.3118 -0.7874 -0.5317
vn -0.4570 0.8165 0.3527
vn -0.0038 0.7822 0.6230
vn -0.2178 -0.9760 -0.0000
vn -0.0212 0.8257 -0.5638
vn 0.2178 0.9760 -0.0000
vn -0.0120 -0.9946 -0.1030
vn -0.0120 -0.9946 0.1030
vn -0.0000 0.3551 -0.9348
vn -0.2785 -0.9604 -0.0000
vn -0.0000 0.3551 0.9348
vn -0.0118 -0.6080 -0.7939
vn 0.3118 -0.7874 0.5317
vn -0.5688 -0.8224 -0.0000
vn -0.0439 0.9990 -0.0000
vt 0.773336 0.850319
vt 0.754397 0.804391
vt 0.784969 0.539567
vt 0.824577 0.624906
vt 0.359621 0.086314
vt 0.270451 0.097173
vt 0.201260 0.099551
vt 0.403352 0.053572
vt 0.118760 0.662977
vt 0.129783 0.841453
vt 0.122339 0.841453
vt 0.094858 0.662977
vt 0.840029 0.375313
vt 0.839045 0.328305
vt 0.851529 0.328305
vt 0.847468 0.375313
vt 0.659244 0.624330
vt 0.700988 0.539569
vt 0.732317 0.801568
vt 0.715969 0.845154
vt 0.201260 0.247203
vt 0.056023 0.267805
vt 0.050179 0.221985
vt 0.195970 0.186650
vt 0.290642 0.190552
vt 0.375782 0.161052
vt 0.429111 0.172695
vt 0.227018 0.218675
vt 0.285594 0.167207
vt 0.249900 0.182918
vt 0.363662 0.104998
vt 0.409792 0.083353
vt 0.995812 0.475256
vt 0.995812 0.657465
vt 0.981747 0.573530
vt 0.981747 0.479454
vt 0.587591 0.946619
vt 0.587591 0.773958
vt 0.644633 0.806757
vt 0.650568 0.928003
vt 0.716334 0.158860
vt 0.702719 0.158860
vt 0.680313 0.086593
vt 0.706107 0.086338
vt 0.459024 0.063076
vt 0.463149 0.082151
vt 0.625827 0.285220
vt 0.475523 0.264686
vt 0.480879 0.210718
vt 0.631542 0.243934
vt 0.699456 0.287799
vt 0.668964 0.287799
vt 0.684553 0.244253
vt 0.707250 0.244253
vt 0.501562 0.412633
vt 0.614690 0.364134
vt 0.631886 0.572570
vt 0.555690 0.568499
vt 0.475523 0.598938
vt 0.576924 0.628052
vt 0.576924 0.795964
vt 0.505143 0.768821
vt 0.552077 0.594867
vt 0.628273 0.598938
vt 0.291015 0.295877
vt 0.324296 0.288171
vt 0.225656 0.400679
vt 0.201260 0.406328
vt 0.475523 0.795964
vt 0.577537 0.795964
vt 0.536193 0.912937
vt 0.477094 0.895876
vt 0.114622 0.608541
vt 0.120147 0.633669
vt 0.035025 0.662977
vt 0.029500 0.637848
vt 0.057081 0.378861
vt 0.171238 0.424360
vt 0.178776 0.458640
vt 0.235700 0.859723
vt 0.235700 0.866080
vt 0.201260 0.892428
vt 0.201260 0.872897
vt 0.743563 0.158860
vt 0.757177 0.158860
vt 0.775343 0.244253
vt 0.752646 0.244253
vt 0.045529 0.134888
vt 0.157795 0.170322
vt 0.524464 0.204769
vt 0.633254 0.160530
vt 0.027413 0.073939
vt 0.148161 0.120284
vt 0.530257 0.152271
vt 0.502015 0.236116
vt 0.507808 0.183618
vt 0.641871 0.086813
vt 0.474205 0.455716
vt 0.467853 0.455616
vt 0.467853 0.406428
vt 0.474205 0.406528
vt 0.094858 0.858987
vt 0.092782 0.860161
vt 0.040555 0.865187
vt 0.041292 0.756369
vt 0.729948 0.158860
vt 0.729948 0.244253
vt 0.235700 0.847009
vt 0.235700 0.853366
vt 0.201260 0.853366
vt 0.201260 0.833836
vt 0.760440 0.287799
vt 0.729948 0.287799
vt 0.422671 0.142915
vt 0.416232 0.113134
vt 0.467274 0.101226
vt 0.471398 0.120302
vt 0.914878 0.612977
vt 0.914175 0.611735
vt 0.880384 0.660378
vt 0.867701 0.557734
vt 0.392727 0.965259
vt 0.362235 0.965258
vt 0.362235 0.813858
vt 0.392727 0.813858
vt 0.699456 0.477299
vt 0.729948 0.477299
vt 0.371742 0.142367
vt 0.367702 0.123683
vt 0.275498 0.120518
vt 0.280546 0.143863
vt 0.243461 0.153137
vt 0.237021 0.123356
vt 0.814282 0.375313
vt 0.814077 0.328305
vt 0.826561 0.328305
vt 0.827156 0.375312
vt 0.166564 0.662977
vt 0.155549 0.841453
vt 0.142666 0.841453
vt 0.142662 0.662977
vt 0.190466 0.662977
vt 0.162994 0.841453
vt 0.806843 0.375313
vt 0.801593 0.328306
vt 0.650568 0.744524
vt 0.639048 0.773958
vt 0.576924 0.756573
vt 0.589454 0.734120
vt 0.753790 0.086338
vt 0.779583 0.086593
vt 0.790932 0.287799
vt 0.235700 0.840652
vt 0.201260 0.814305
vt 0.461502 0.455516
vt 0.461502 0.406328
vt 0.824577 0.663161
vt 0.824905 0.663741
vt 0.760440 0.477299
vt 0.967159 0.663741
vt 0.967159 0.475256
vt 0.981747 0.480694
vt 0.981747 0.578011
vt 0.475523 0.139377
vt 0.461502 0.455716
vt 0.467859 0.455716
vt 0.467859 0.489692
vt 0.461502 0.489692
vt -0.000000 0.822318
vt 0.004445 0.819803
vt 0.331743 0.965258
vt 0.331743 0.813858
vt 0.979477 0.457305
vt 0.973311 0.455775
vt 0.984404 0.407854
vt 0.990569 0.409384
vt 0.994767 0.947943
vt 0.988598 0.949456
vt 0.976133 0.901873
vt 0.982303 0.900360
vt 0.467859 0.455716
vt 0.474216 0.455716
vt 0.474216 0.489692
vt 0.467859 0.489692
vt 0.894936 0.375313
vt 0.894936 0.428129
vt 0.876061 0.461749
vt 0.876061 0.408933
vt 0.456912 0.864815
vt 0.456912 0.813858
vt 0.475147 0.847665
vt 0.475147 0.898622
vt 0.172459 0.150034
vt 0.182093 0.200072
vt 0.993835 0.370601
vt 1.000000 0.372130
vt 0.967159 0.864507
vt 0.973329 0.862994
vt 0.417789 0.919422
vt 0.392727 0.934242
vt 0.392727 0.813858
vt 0.417784 0.813858
vt 0.442846 0.934241
vt 0.417793 0.919423
vt 0.417789 0.813858
vt 0.442846 0.813858
vt 0.632598 0.598939
vt 0.576924 0.632609
vt 0.914878 0.603049
vt 0.945362 0.603729
vt 0.949460 0.663741
vt 0.924409 0.663182
vt 0.853527 0.323811
vt 0.853527 0.172110
vt 0.912953 0.196506
vt 0.912953 0.302280
vt 0.967159 0.832457
vt 0.911601 0.820597
vt 0.917262 0.701713
vt 0.942827 0.356525
vt 0.973312 0.355845
vt 0.963782 0.415979
vt 0.938730 0.416537
vt 0.881326 0.342897
vt 0.938730 0.315577
vt 0.916794 0.517130
vt 0.947278 0.517810
vt 0.251280 0.844797
vt 0.251280 0.814305
vt 0.266861 0.814305
vt 0.266861 0.844797
vt 0.456912 0.813858
vt 0.456912 0.996067
vt 0.442846 0.912133
vt 0.442846 0.818056
vt 0.235700 0.844797
vt 0.235700 0.814305
vt 0.251280 0.814305
vt 0.251280 0.844797
vt 0.940911 0.270607
vt 0.971396 0.269927
vt 0.949460 0.607799
vt 0.949460 0.419314
vt 0.964048 0.424752
vt 0.964048 0.522069
s 0
usemtl White
f 4/1/1 3/2/1 7/3/1 8/4/1
f 5/5/2 6/6/2 10/7/2 9/8/2
f 73/9/3 78/10/3 4/11/3 8/12/3
f 78/13/4 74/14/4 3/15/4 4/16/4
f 6/17/5 5/18/5 1/19/5 2/20/5
f 9/21/6 13/22/6 40/23/6 38/24/6
f 8/25/7 7/26/7 11/27/7 12/28/7
f 73/29/8 8/25/8 12/28/8 75/30/8
f 59/31/9 5/5/9 9/8/9 61/32/9
f 13/33/10 14/34/10 106/35/10 105/36/10
f 12/37/11 16/38/11 100/39/11 98/40/11
f 84/41/12 20/42/12 44/43/12 86/44/12
f 61/32/13 9/8/13 38/45/13 63/46/13
f 15/47/14 11/48/14 37/49/14 39/50/14
f 80/51/15 15/52/15 39/53/15 82/54/15
f 21/55/16 23/56/16 31/57/16 29/58/16
f 26/59/17 28/60/17 36/61/17 34/62/17
f 30/63/18 29/58/18 31/57/18 32/64/18
f 22/65/19 21/66/19 29/67/19 30/68/19
f 24/69/20 22/70/20 30/71/20 32/72/20
f 33/73/21 34/74/21 36/75/21 35/76/21
f 27/77/22 25/78/22 33/73/22 35/76/22
f 25/78/23 26/79/23 34/74/23 33/73/23
f 83/80/24 18/81/24 37/82/24 81/83/24
f 66/84/25 19/85/25 40/86/25 64/87/25
f 19/88/26 17/89/26 38/24/26 40/23/26
f 18/90/27 20/91/27 39/50/27 37/49/27
f 17/89/28 19/88/28 43/92/28 41/93/28
f 42/94/29 18/90/29 90/95/29 92/96/29
f 20/91/30 18/90/30 42/94/30 44/97/30
f 83/98/31 55/99/31 57/100/31 85/101/31
f 85/102/32 57/103/32 58/104/32 86/105/32
f 84/41/25 56/106/25 54/107/25 82/54/25
f 65/108/24 55/109/24 53/110/24 63/111/24
f 62/112/15 52/113/15 54/107/15 64/87/15
f 79/114/13 50/115/13 53/116/13 81/117/13
f 66/118/33 56/119/33 58/120/33 68/121/33
f 71/122/34 49/123/34 51/124/34 72/125/34
f 76/126/15 80/51/15 52/113/15 51/127/15
f 77/128/9 47/129/9 50/115/9 79/114/9
f 69/130/35 45/131/35 49/132/35 71/133/35
f 60/134/4 70/135/4 46/136/4 48/137/4
f 69/138/3 60/139/3 48/140/3 45/141/3
f 6/142/3 2/143/3 60/139/3 69/138/3
f 2/144/4 1/145/4 70/135/4 60/134/4
f 6/6/36 69/130/36 71/133/36 10/7/36
f 75/146/37 12/147/37 98/148/37 103/149/37
f 19/85/38 66/84/38 68/150/38 43/151/38
f 13/152/15 62/112/15 64/87/15 40/86/15
f 17/153/24 65/108/24 63/111/24 38/154/24
f 55/99/31 65/155/31 67/156/31 57/100/31
f 57/157/39 67/158/39 68/121/39 58/120/39
f 56/106/25 66/84/25 64/87/25 54/107/25
f 50/115/13 61/32/13 63/46/13 53/116/13
f 51/127/15 52/113/15 62/112/15 72/159/15
f 47/129/9 59/31/9 61/32/9 50/115/9
f 7/26/9 77/128/9 79/114/9 11/27/9
f 72/160/29 62/161/29 109/162/29 110/163/29
f 11/27/13 79/114/13 81/117/13 37/164/13
f 20/42/25 84/41/25 82/54/25 39/53/25
f 18/165/40 83/166/40 95/167/40 90/168/40
f 55/109/24 83/80/24 81/83/24 53/110/24
f 52/113/15 80/51/15 82/54/15 54/107/15
f 56/169/41 84/170/41 86/105/41 58/104/41
f 49/123/34 75/171/34 76/172/34 51/124/34
f 45/131/35 73/29/35 75/30/35 49/132/35
f 48/137/4 46/136/4 74/14/4 78/13/4
f 45/141/3 48/140/3 78/10/3 73/9/3
f 93/173/31 89/174/31 91/175/31 94/176/31
f 90/177/31 95/178/31 96/179/31 92/180/31
f 65/181/40 17/182/40 89/183/40 93/184/40
f 67/185/29 65/186/29 93/187/29 94/188/29
f 83/189/10 85/190/10 96/191/10 95/192/10
f 17/89/10 41/93/10 91/193/10 89/194/10
f 41/195/42 67/196/42 94/176/42 91/175/42
f 85/197/42 42/198/42 92/180/42 96/179/42
f 103/199/43 98/200/43 100/201/43 104/202/43
f 97/203/44 101/204/44 102/205/44 99/206/44
f 76/207/45 75/146/45 103/149/45 104/208/45
f 16/209/46 76/210/46 104/211/46 100/212/46
f 71/213/47 72/214/47 102/215/47 101/216/47
f 14/160/48 10/217/48 97/218/48 99/219/48
f 72/220/46 14/221/46 99/222/46 102/223/46
f 10/224/49 71/213/49 101/216/49 97/225/49
f 76/210/50 16/209/50 108/226/50 111/227/50
f 15/228/51 80/229/51 112/230/51 107/231/51
f 80/232/10 76/233/10 111/234/10 112/235/10
f 62/236/51 13/237/51 105/238/51 109/239/51
f 14/221/50 72/220/50 110/240/50 106/241/50
f 16/242/29 15/243/29 107/244/29 108/245/29
l 87 113
l 88 114
o Plexiglas
v 7.526362 -1.725231 -1.014008
v 7.526362 -1.725231 1.014008
v -3.930000 0.460000 -1.552724
v -3.930000 0.460000 1.552724
v 6.756721 -1.293575 -0.790229
v 6.756721 -1.293575 0.790229
v -3.054862 1.183992 -1.073678
v -3.054862 1.183992 1.073678
v 7.526362 -1.725231 0.000000
v -3.930000 0.460000 0.000000
v 6.756721 -1.293575 0.000000
v -3.054862 1.183992 0.000000
v -3.930000 0.460000 -0.776362
v -3.054862 1.183992 -0.536839
v 7.526362 -1.725231 -0.507004
v 6.756721 -1.293575 -0.395114
v 7.526362 -1.725231 0.507004
v 6.756721 -1.293575 0.395114
v -3.930000 0.460000 0.776362
v -3.054862 1.183992 0.536839
vn -0.6374 0.7705 -0.0000
vn 0.2448 0.9696 -0.0000
vn 0.4892 0.8722 -0.0000
vn 0.1435 0.5046 -0.8513
vn 0.1435 0.5046 0.8513
vt 0.800652 0.394443
vt 0.800652 0.375313
vt 0.876061 0.387117
vt 0.876061 0.400346
vt 0.836017 0.283030
vt 0.840308 0.000000
vt 0.853527 0.000000
vt 0.845746 0.283030
vt 0.814077 0.328305
vt 0.801593 0.328306
vt 0.806830 0.283030
vt 0.816559 0.283030
vt 0.732317 0.801568
vt 0.700988 0.539569
vt 0.744352 0.477299
vt 0.744352 0.757273
vt 0.784969 0.539567
vt 0.754397 0.804391
vt 0.744352 0.760499
vt 0.744352 0.477300
vt 0.839045 0.328305
vt 0.826561 0.328305
vt 0.826288 0.283030
vt 0.813871 0.000000
vt 0.827089 0.000000
vt 0.800652 0.432704
vt 0.800652 0.413574
vt 0.876061 0.413574
vt 0.876061 0.426803
vt 0.800652 0.451835
vt 0.876061 0.440031
vt 0.800652 0.000000
vt 0.851529 0.328305
s 0
usemtl Plexiglas
f 133/246/52 118/247/52 122/248/52 134/249/52
f 132/250/53 134/251/53 122/252/53 120/253/53
f 129/254/54 115/255/54 119/256/54 130/257/54
f 115/258/55 117/259/55 121/260/55 119/261/55
f 118/262/56 116/263/56 120/264/56 122/265/56
f 131/266/54 123/267/54 125/268/54 132/250/54
f 130/257/53 128/269/53 126/270/53 125/268/53
f 127/271/52 124/272/52 126/273/52 128/274/52
f 117/275/52 127/271/52 128/274/52 121/276/52
f 119/256/53 121/277/53 128/269/53 130/257/53
f 123/267/54 129/254/54 130/257/54 125/268/54
f 116/278/54 131/266/54 132/250/54 120/253/54
f 125/268/53 126/270/53 134/251/53 132/250/53
f 124/272/52 133/246/52 134/249/52 126/273/52
o Red
v -17.735046 0.052542 6.006446
v -17.735046 -0.911874 6.006446
v -17.735046 0.052542 -5.967370
v -17.735046 -0.911874 -5.967370
v -21.505613 -2.069401 11.861546
v -21.505613 -2.326921 11.861546
v -21.505613 -2.069401 -11.834797
v -21.505613 -2.326921 -11.834797
v -8.452520 2.110179 -0.515961
v -8.452520 2.110179 0.515961
v -16.824242 2.846462 -2.014294
v -16.824242 2.846462 2.014294
v -8.452520 2.110179 -0.257981
v -15.589986 2.846462 -0.967532
v -8.452520 2.110179 0.257981
v -15.589986 2.846462 0.967532
v -11.878377 2.943834 -2.352908
v -11.878377 2.943834 2.352908
v -17.276892 3.680117 -2.869328
v -17.276892 3.680117 2.869328
v -11.878377 2.943834 -2.198087
v -16.971821 3.680117 -2.642149
v -11.878377 2.943834 2.198087
v -16.971821 3.680117 2.642149
v -19.554483 -0.714832 7.093105
v -19.554483 -1.050662 7.093105
v -19.554483 -0.714832 -7.056264
v -19.554483 -1.050662 -7.056264
v -23.325050 -1.682296 11.860428
v -23.325050 -1.807864 11.860428
v -23.325050 -1.682296 -11.835915
v -23.325050 -1.807864 -11.835915
vn -0.1942 -0.9249 -0.3270
vn 0.0006 -0.0000 -1.0000
vn -0.0178 -0.8613 0.5078
vn 0.0828 0.9423 -0.3244
vn 0.1487 0.9817 -0.1187
vn 0.1487 0.9817 0.1187
vn -0.5776 0.4234 0.6979
vn -0.5776 0.4234 -0.6979
vn -0.0178 -0.8613 -0.5078
vn 0.0828 0.9423 0.3244
vn 0.2364 0.9716 -0.0000
vn -0.7843 -0.0000 -0.6203
vn -0.7851 -0.0000 0.6194
vn -0.5128 -0.0000 -0.8585
vn -0.0215 0.9641 -0.2645
vn -0.1944 -0.9250 0.3264
vn -0.0006 -0.0000 1.0000
vn -0.5135 -0.0000 0.8581
vn -0.0217 0.9640 0.2650
vt 0.263628 0.608815
vt 0.242693 0.814305
vt 0.209380 0.772367
vt 0.251878 0.637061
vt 0.029500 0.637848
vt 0.035025 0.662977
vt 0.002694 0.615342
vt 0.000000 0.603089
vt 0.641871 0.086813
vt 0.530257 0.152271
vt 0.583718 0.067830
vt 0.659244 -0.000000
vt 0.094858 0.858987
vt 0.041292 0.756369
vt 0.061770 0.662977
vt 0.094858 0.756221
vt 0.977012 0.267754
vt 0.973311 0.266836
vt 0.985083 0.172110
vt 0.990066 0.174697
vt 0.994767 0.759132
vt 0.991065 0.760040
vt 0.980588 0.666377
vt 0.985839 0.663741
vt 0.779583 0.086593
vt 0.753790 0.086338
vt 0.795054 0.000000
vt 0.800652 0.000063
vt 0.706107 0.086338
vt 0.680313 0.086593
vt 0.659244 0.000063
vt 0.664842 0.000000
vt 0.148161 0.120284
vt 0.027413 0.073939
vt 0.000000 -0.000000
vt 0.081237 0.058905
vt 0.867701 0.557734
vt 0.824905 0.663741
vt 0.824577 0.572421
vt 0.844981 0.477299
vt 1.000000 0.372130
vt 0.993835 0.370601
vt 0.973329 0.862994
vt 0.967159 0.864507
vt 0.230160 0.609748
vt 0.201260 0.762154
vt 0.410798 0.636449
vt 0.432549 0.609162
vt 0.461502 0.761790
vt 0.453369 0.771993
vt 0.201260 0.530379
vt 0.057081 0.378861
vt 0.046938 0.465227
vt 0.419964 0.813858
vt 0.399040 0.608155
vt 0.628273 0.598938
vt 0.631886 0.572570
vt 0.659244 0.535931
vt 0.657482 0.548789
vt 0.461502 0.529793
vt 0.614690 0.364134
vt 0.626134 0.442912
s 0
usemtl Red
f 136/279/57 140/280/57 164/281/57 160/282/57
f 141/283/58 142/284/58 166/285/58 165/286/58
f 146/287/59 144/288/59 152/289/59 154/290/59
f 149/291/60 150/292/60 158/293/60 157/294/60
f 155/295/61 151/296/61 153/297/61 156/298/61
f 152/299/62 157/300/62 158/301/62 154/302/62
f 145/303/63 148/304/63 156/305/63 153/306/63
f 150/307/64 146/308/64 154/309/64 158/310/64
f 143/311/65 145/312/65 153/313/65 151/314/65
f 148/315/66 147/316/66 155/317/66 156/318/66
f 147/319/67 143/320/67 151/296/67 155/295/67
f 144/321/67 149/322/67 157/300/67 152/299/67
f 159/323/68 160/282/68 164/281/68 163/324/68
f 162/325/69 161/326/69 165/327/69 166/328/69
f 135/329/70 136/279/70 160/282/70 159/323/70
f 137/330/71 141/283/71 165/286/71 161/331/71
f 142/332/72 138/333/72 162/325/72 166/328/72
f 140/334/73 139/335/73 163/336/73 164/337/73
f 138/333/74 137/338/74 161/326/74 162/325/74
f 139/335/75 135/339/75 159/340/75 163/336/75
o LightBlue
v -5.263657 0.911874 -2.474853
v -3.686107 -1.149942 -2.474853
v -5.263657 0.911874 2.474853
v -3.686107 -1.149942 2.474853
v -17.735046 0.911874 -2.474853
v -17.735046 -0.911874 -2.474853
v -17.735046 0.911874 2.474853
v -17.735046 -0.911874 2.474853
v -9.061988 -0.560568 6.006446
v -9.061988 -0.911874 6.006446
v -17.735046 0.052542 6.006446
v -17.735046 -0.911874 6.006446
v -9.061988 -0.560568 -5.967370
v -9.061988 -0.911874 -5.967370
v -17.735046 0.052542 -5.967370
v -17.735046 -0.911874 -5.967370
vn -0.0105 -0.9996 0.0257
vn 0.0274 0.9436 -0.3299
vn 0.5404 0.3533 0.7637
vn 0.0274 0.9448 0.3266
vn -1.0000 -0.0000 -0.0000
vn -0.0105 -0.9996 -0.0260
vn 0.5369 0.3510 -0.7672
vt 0.911601 0.663741
vt 0.911601 0.835850
vt 0.824580 0.769032
vt 0.824577 0.663742
vt 0.056023 0.267805
vt 0.201260 0.247203
vt 0.171238 0.424360
vt 0.057081 0.378861
vt 0.227018 0.218675
vt 0.429111 0.172695
vt 0.324296 0.288171
vt 0.291015 0.295877
vt 0.475523 0.264686
vt 0.625827 0.285220
vt 0.614690 0.364134
vt 0.501562 0.412633
vt 0.213801 0.406328
vt 0.331743 0.554653
vt 0.263628 0.608815
vt 0.201260 0.530379
vt 0.331743 0.554512
vt 0.449862 0.406328
vt 0.461502 0.529793
vt 0.399040 0.608155
vt 0.853527 0.172110
vt 0.853527 0.000001
vt 0.939587 -0.000000
vt 0.939590 0.105289
vt 0.403352 0.053572
vt 0.201260 0.099551
vt 0.228703 0.007706
vt 0.261983 -0.000000
s 0
usemtl LightBlue
f 174/341/76 170/342/76 176/343/76 178/344/76
f 171/345/77 167/346/77 179/347/77 181/348/77
f 170/349/78 169/350/78 175/351/78 176/352/78
f 169/353/79 173/354/79 177/355/79 175/356/79
f 173/357/80 174/358/80 178/359/80 177/360/80
f 172/361/80 171/362/80 181/363/80 182/364/80
f 168/365/81 172/366/81 182/367/81 180/368/81
f 167/369/82 168/370/82 180/371/82 179/372/82
o Turbine
v -18.934280 0.859201 -2.474853
v -18.934280 -0.082418 -2.474853
v -18.934280 0.859201 2.474853
v -18.934280 -0.082418 2.474853
v -18.934280 0.859201 -1.237427
v -18.934280 -0.082418 -1.237427
v -18.934280 -0.082418 1.237427
v -18.934280 0.859201 1.237427
vn -1.0000 -0.0000 -0.0000
vt 0.940911 0.270607
vt 0.938730 0.172790
vt 0.969215 0.172110
vt 0.971396 0.269927
vt 0.916794 0.517130
vt 0.918976 0.419314
vt 0.949460 0.419994
vt 0.947278 0.517810
s 1
usemtl Turbine
f 188/373/83 187/374/83 183/375/83 184/376/83
f 186/377/83 185/378/83 190/379/83 189/380/83
